<svg xmlns="http://www.w3.org/2000/svg" width="960" height="560" viewBox="0 0 960 560"><style>text{font-family:Arial,sans-serif;font-size:12px;} .title{font-size:16px;font-weight:bold;}</style><rect width="100%" height="100%" fill="white"/><text x="480.0" y="30.0" class="title" text-anchor="middle">Unary ping-pong latency</text><text x="480.0" y="540.0" text-anchor="middle">Payload size</text><text x="15" y="280.0" transform="rotate(-90 15,280.0)" text-anchor="middle">Avg latency (µs)</text><line x1="80.0" y1="490.0" x2="920.0" y2="490.0" stroke="black"/><line x1="80.0" y1="490.0" x2="80.0" y2="60.0" stroke="black"/><line x1="80.0" y1="490.0" x2="80.0" y2="496.0" stroke="black"/><text x="80.0" y="510.0" text-anchor="middle">0 B</text><line x1="80.0" y1="490.0" x2="80.0" y2="60.0" stroke="#dddddd"/><line x1="205.2" y1="490.0" x2="205.2" y2="496.0" stroke="black"/><text x="205.2" y="510.0" text-anchor="middle">19.1 MiB</text><line x1="205.2" y1="490.0" x2="205.2" y2="60.0" stroke="#dddddd"/><line x1="330.3" y1="490.0" x2="330.3" y2="496.0" stroke="black"/><text x="330.3" y="510.0" text-anchor="middle">38.1 MiB</text><line x1="330.3" y1="490.0" x2="330.3" y2="60.0" stroke="#dddddd"/><line x1="455.5" y1="490.0" x2="455.5" y2="496.0" stroke="black"/><text x="455.5" y="510.0" text-anchor="middle">57.2 MiB</text><line x1="455.5" y1="490.0" x2="455.5" y2="60.0" stroke="#dddddd"/><line x1="580.7" y1="490.0" x2="580.7" y2="496.0" stroke="black"/><text x="580.7" y="510.0" text-anchor="middle">76.3 MiB</text><line x1="580.7" y1="490.0" x2="580.7" y2="60.0" stroke="#dddddd"/><line x1="705.8" y1="490.0" x2="705.8" y2="496.0" stroke="black"/><text x="705.8" y="510.0" text-anchor="middle">95.4 MiB</text><line x1="705.8" y1="490.0" x2="705.8" y2="60.0" stroke="#dddddd"/><line x1="831.0" y1="490.0" x2="831.0" y2="496.0" stroke="black"/><text x="831.0" y="510.0" text-anchor="middle">114.4 MiB</text><line x1="831.0" y1="490.0" x2="831.0" y2="60.0" stroke="#dddddd"/><line x1="956.2" y1="490.0" x2="956.2" y2="496.0" stroke="black"/><text x="956.2" y="510.0" text-anchor="middle">133.5 MiB</text><line x1="956.2" y1="490.0" x2="956.2" y2="60.0" stroke="#dddddd"/><line x1="74.0" y1="490.0" x2="80.0" y2="490.0" stroke="black"/><text x="72.0" y="494.0" text-anchor="end">0.00</text><line x1="80.0" y1="490.0" x2="920.0" y2="490.0" stroke="#ededed"/><line x1="74.0" y1="429.9" x2="80.0" y2="429.9" stroke="black"/><text x="72.0" y="433.9" text-anchor="end">100.0k</text><line x1="80.0" y1="429.9" x2="920.0" y2="429.9" stroke="#ededed"/><line x1="74.0" y1="369.8" x2="80.0" y2="369.8" stroke="black"/><text x="72.0" y="373.8" text-anchor="end">200.0k</text><line x1="80.0" y1="369.8" x2="920.0" y2="369.8" stroke="#ededed"/><line x1="74.0" y1="309.7" x2="80.0" y2="309.7" stroke="black"/><text x="72.0" y="313.7" text-anchor="end">300.0k</text><line x1="80.0" y1="309.7" x2="920.0" y2="309.7" stroke="#ededed"/><line x1="74.0" y1="249.6" x2="80.0" y2="249.6" stroke="black"/><text x="72.0" y="253.6" text-anchor="end">400.0k</text><line x1="80.0" y1="249.6" x2="920.0" y2="249.6" stroke="#ededed"/><line x1="74.0" y1="189.5" x2="80.0" y2="189.5" stroke="black"/><text x="72.0" y="193.5" text-anchor="end">500.0k</text><line x1="80.0" y1="189.5" x2="920.0" y2="189.5" stroke="#ededed"/><line x1="74.0" y1="129.4" x2="80.0" y2="129.4" stroke="black"/><text x="72.0" y="133.4" text-anchor="end">600.0k</text><line x1="80.0" y1="129.4" x2="920.0" y2="129.4" stroke="#ededed"/><line x1="74.0" y1="69.3" x2="80.0" y2="69.3" stroke="black"/><text x="72.0" y="73.3" text-anchor="end">700.0k</text><line x1="80.0" y1="69.3" x2="920.0" y2="69.3" stroke="#ededed"/><line x1="74.0" y1="9.2" x2="80.0" y2="9.2" stroke="black"/><text x="72.0" y="13.2" text-anchor="end">800.0k</text><line x1="80.0" y1="9.2" x2="920.0" y2="9.2" stroke="#ededed"/><polyline fill="none" stroke="#d62728" stroke-width="2" points="80.0,489.9 80.0,489.9 80.0,489.9 80.0,489.9 80.1,489.9 80.4,489.8 81.6,489.5 83.3,488.7 86.6,488.5 93.1,486.5 106.2,483.6 185.0,466.6 290.0,441.2 500.0,390.1 920.0,301.1 "/><circle cx="80.0" cy="489.9" r="3" fill="#d62728"/><circle cx="80.0" cy="489.9" r="3" fill="#d62728"/><circle cx="80.0" cy="489.9" r="3" fill="#d62728"/><circle cx="80.0" cy="489.9" r="3" fill="#d62728"/><circle cx="80.1" cy="489.9" r="3" fill="#d62728"/><circle cx="80.4" cy="489.8" r="3" fill="#d62728"/><circle cx="81.6" cy="489.5" r="3" fill="#d62728"/><circle cx="83.3" cy="488.7" r="3" fill="#d62728"/><circle cx="86.6" cy="488.5" r="3" fill="#d62728"/><circle cx="93.1" cy="486.5" r="3" fill="#d62728"/><circle cx="106.2" cy="483.6" r="3" fill="#d62728"/><circle cx="185.0" cy="466.6" r="3" fill="#d62728"/><circle cx="290.0" cy="441.2" r="3" fill="#d62728"/><circle cx="500.0" cy="390.1" r="3" fill="#d62728"/><circle cx="920.0" cy="301.1" r="3" fill="#d62728"/><polyline fill="none" stroke="#1f77b4" stroke-width="2" points="80.0,489.8 80.0,489.8 80.0,489.8 80.0,489.8 80.1,489.8 80.4,489.5 81.6,488.8 83.3,487.8 86.6,486.2 93.1,482.8 106.2,475.9 185.0,439.0 290.0,387.0 500.0,275.1 920.0,60.0 "/><circle cx="80.0" cy="489.8" r="3" fill="#1f77b4"/><circle cx="80.0" cy="489.8" r="3" fill="#1f77b4"/><circle cx="80.0" cy="489.8" r="3" fill="#1f77b4"/><circle cx="80.0" cy="489.8" r="3" fill="#1f77b4"/><circle cx="80.1" cy="489.8" r="3" fill="#1f77b4"/><circle cx="80.4" cy="489.5" r="3" fill="#1f77b4"/><circle cx="81.6" cy="488.8" r="3" fill="#1f77b4"/><circle cx="83.3" cy="487.8" r="3" fill="#1f77b4"/><circle cx="86.6" cy="486.2" r="3" fill="#1f77b4"/><circle cx="93.1" cy="482.8" r="3" fill="#1f77b4"/><circle cx="106.2" cy="475.9" r="3" fill="#1f77b4"/><circle cx="185.0" cy="439.0" r="3" fill="#1f77b4"/><circle cx="290.0" cy="387.0" r="3" fill="#1f77b4"/><circle cx="500.0" cy="275.1" r="3" fill="#1f77b4"/><circle cx="920.0" cy="60.0" r="3" fill="#1f77b4"/><rect x="770.0" y="70.0" width="140" height="54.0" fill="white" stroke="#ccc"/><line x1="780.0" y1="85.0" x2="800.0" y2="85.0" stroke="#d62728" stroke-width="3"/><text x="810.0" y="88.0">shm</text><line x1="780.0" y1="107.0" x2="800.0" y2="107.0" stroke="#1f77b4" stroke-width="3"/><text x="810.0" y="110.0">tcp</text></svg>