<svg xmlns="http://www.w3.org/2000/svg" width="960" height="560" viewBox="0 0 960 560"><style>text{font-family:Arial,sans-serif;font-size:12px;} .title{font-size:16px;font-weight:bold;}</style><rect width="100%" height="100%" fill="white"/><text x="480.0" y="30.0" class="title" text-anchor="middle">Streaming throughput</text><text x="480.0" y="540.0" text-anchor="middle">Payload size</text><text x="15" y="280.0" transform="rotate(-90 15,280.0)" text-anchor="middle">Throughput (MiB/s)</text><line x1="80.0" y1="490.0" x2="920.0" y2="490.0" stroke="black"/><line x1="80.0" y1="490.0" x2="80.0" y2="60.0" stroke="black"/><line x1="80.0" y1="490.0" x2="80.0" y2="496.0" stroke="black"/><text x="80.0" y="510.0" text-anchor="middle">0 B</text><line x1="80.0" y1="490.0" x2="80.0" y2="60.0" stroke="#dddddd"/><line x1="205.2" y1="490.0" x2="205.2" y2="496.0" stroke="black"/><text x="205.2" y="510.0" text-anchor="middle">19.1 MiB</text><line x1="205.2" y1="490.0" x2="205.2" y2="60.0" stroke="#dddddd"/><line x1="330.3" y1="490.0" x2="330.3" y2="496.0" stroke="black"/><text x="330.3" y="510.0" text-anchor="middle">38.1 MiB</text><line x1="330.3" y1="490.0" x2="330.3" y2="60.0" stroke="#dddddd"/><line x1="455.5" y1="490.0" x2="455.5" y2="496.0" stroke="black"/><text x="455.5" y="510.0" text-anchor="middle">57.2 MiB</text><line x1="455.5" y1="490.0" x2="455.5" y2="60.0" stroke="#dddddd"/><line x1="580.7" y1="490.0" x2="580.7" y2="496.0" stroke="black"/><text x="580.7" y="510.0" text-anchor="middle">76.3 MiB</text><line x1="580.7" y1="490.0" x2="580.7" y2="60.0" stroke="#dddddd"/><line x1="705.8" y1="490.0" x2="705.8" y2="496.0" stroke="black"/><text x="705.8" y="510.0" text-anchor="middle">95.4 MiB</text><line x1="705.8" y1="490.0" x2="705.8" y2="60.0" stroke="#dddddd"/><line x1="831.0" y1="490.0" x2="831.0" y2="496.0" stroke="black"/><text x="831.0" y="510.0" text-anchor="middle">114.4 MiB</text><line x1="831.0" y1="490.0" x2="831.0" y2="60.0" stroke="#dddddd"/><line x1="956.2" y1="490.0" x2="956.2" y2="496.0" stroke="black"/><text x="956.2" y="510.0" text-anchor="middle">133.5 MiB</text><line x1="956.2" y1="490.0" x2="956.2" y2="60.0" stroke="#dddddd"/><line x1="74.0" y1="490.0" x2="80.0" y2="490.0" stroke="black"/><text x="72.0" y="494.0" text-anchor="end">0.00</text><line x1="80.0" y1="490.0" x2="920.0" y2="490.0" stroke="#ededed"/><line x1="74.0" y1="374.1" x2="80.0" y2="374.1" stroke="black"/><text x="72.0" y="378.1" text-anchor="end">500</text><line x1="80.0" y1="374.1" x2="920.0" y2="374.1" stroke="#ededed"/><line x1="74.0" y1="258.2" x2="80.0" y2="258.2" stroke="black"/><text x="72.0" y="262.2" text-anchor="end">1.0k</text><line x1="80.0" y1="258.2" x2="920.0" y2="258.2" stroke="#ededed"/><line x1="74.0" y1="142.4" x2="80.0" y2="142.4" stroke="black"/><text x="72.0" y="146.4" text-anchor="end">1.5k</text><line x1="80.0" y1="142.4" x2="920.0" y2="142.4" stroke="#ededed"/><line x1="74.0" y1="26.5" x2="80.0" y2="26.5" stroke="black"/><text x="72.0" y="30.5" text-anchor="end">2.0k</text><line x1="80.0" y1="26.5" x2="920.0" y2="26.5" stroke="#ededed"/><polyline fill="none" stroke="#d62728" stroke-width="2" points="80.0,490.0 80.0,490.0 80.0,462.1 80.0,424.1 80.1,237.8 80.4,60.0 81.6,244.8 83.3,286.4 86.6,101.6 93.1,193.8 106.2,223.7 185.0,128.4 290.0,171.0 500.0,174.1 920.0,261.4 "/><circle cx="80.0" cy="490.0" r="3" fill="#d62728"/><circle cx="80.0" cy="490.0" r="3" fill="#d62728"/><circle cx="80.0" cy="462.1" r="3" fill="#d62728"/><circle cx="80.0" cy="424.1" r="3" fill="#d62728"/><circle cx="80.1" cy="237.8" r="3" fill="#d62728"/><circle cx="80.4" cy="60.0" r="3" fill="#d62728"/><circle cx="81.6" cy="244.8" r="3" fill="#d62728"/><circle cx="83.3" cy="286.4" r="3" fill="#d62728"/><circle cx="86.6" cy="101.6" r="3" fill="#d62728"/><circle cx="93.1" cy="193.8" r="3" fill="#d62728"/><circle cx="106.2" cy="223.7" r="3" fill="#d62728"/><circle cx="185.0" cy="128.4" r="3" fill="#d62728"/><circle cx="290.0" cy="171.0" r="3" fill="#d62728"/><circle cx="500.0" cy="174.1" r="3" fill="#d62728"/><circle cx="920.0" cy="261.4" r="3" fill="#d62728"/><polyline fill="none" stroke="#1f77b4" stroke-width="2" points="80.0,490.0 80.0,490.0 80.0,483.9 80.0,470.7 80.1,439.8 80.4,398.3 81.6,436.8 83.3,426.0 86.6,424.2 93.1,415.8 106.2,410.6 185.0,407.1 290.0,397.6 500.0,402.4 920.0,391.2 "/><circle cx="80.0" cy="490.0" r="3" fill="#1f77b4"/><circle cx="80.0" cy="490.0" r="3" fill="#1f77b4"/><circle cx="80.0" cy="483.9" r="3" fill="#1f77b4"/><circle cx="80.0" cy="470.7" r="3" fill="#1f77b4"/><circle cx="80.1" cy="439.8" r="3" fill="#1f77b4"/><circle cx="80.4" cy="398.3" r="3" fill="#1f77b4"/><circle cx="81.6" cy="436.8" r="3" fill="#1f77b4"/><circle cx="83.3" cy="426.0" r="3" fill="#1f77b4"/><circle cx="86.6" cy="424.2" r="3" fill="#1f77b4"/><circle cx="93.1" cy="415.8" r="3" fill="#1f77b4"/><circle cx="106.2" cy="410.6" r="3" fill="#1f77b4"/><circle cx="185.0" cy="407.1" r="3" fill="#1f77b4"/><circle cx="290.0" cy="397.6" r="3" fill="#1f77b4"/><circle cx="500.0" cy="402.4" r="3" fill="#1f77b4"/><circle cx="920.0" cy="391.2" r="3" fill="#1f77b4"/><rect x="770.0" y="70.0" width="140" height="54.0" fill="white" stroke="#ccc"/><line x1="780.0" y1="85.0" x2="800.0" y2="85.0" stroke="#d62728" stroke-width="3"/><text x="810.0" y="88.0">shm</text><line x1="780.0" y1="107.0" x2="800.0" y2="107.0" stroke="#1f77b4" stroke-width="3"/><text x="810.0" y="110.0">tcp</text></svg>