<svg xmlns="http://www.w3.org/2000/svg" width="960" height="560" viewBox="0 0 960 560"><style>text{font-family:Arial,sans-serif;font-size:12px;} .title{font-size:16px;font-weight:bold;}</style><rect width="100%" height="100%" fill="white"/><text x="480.0" y="30.0" class="title" text-anchor="middle">Streaming throughput</text><text x="480.0" y="540.0" text-anchor="middle">Payload size</text><text x="15" y="280.0" transform="rotate(-90 15,280.0)" text-anchor="middle">Throughput (MiB/s)</text><line x1="80.0" y1="490.0" x2="920.0" y2="490.0" stroke="black"/><line x1="80.0" y1="490.0" x2="80.0" y2="60.0" stroke="black"/><line x1="80.0" y1="490.0" x2="80.0" y2="496.0" stroke="black"/><text x="80.0" y="510.0" text-anchor="middle">0 B</text><line x1="80.0" y1="490.0" x2="80.0" y2="60.0" stroke="#dddddd"/><line x1="205.2" y1="490.0" x2="205.2" y2="496.0" stroke="black"/><text x="205.2" y="510.0" text-anchor="middle">19.1 MiB</text><line x1="205.2" y1="490.0" x2="205.2" y2="60.0" stroke="#dddddd"/><line x1="330.3" y1="490.0" x2="330.3" y2="496.0" stroke="black"/><text x="330.3" y="510.0" text-anchor="middle">38.1 MiB</text><line x1="330.3" y1="490.0" x2="330.3" y2="60.0" stroke="#dddddd"/><line x1="455.5" y1="490.0" x2="455.5" y2="496.0" stroke="black"/><text x="455.5" y="510.0" text-anchor="middle">57.2 MiB</text><line x1="455.5" y1="490.0" x2="455.5" y2="60.0" stroke="#dddddd"/><line x1="580.7" y1="490.0" x2="580.7" y2="496.0" stroke="black"/><text x="580.7" y="510.0" text-anchor="middle">76.3 MiB</text><line x1="580.7" y1="490.0" x2="580.7" y2="60.0" stroke="#dddddd"/><line x1="705.8" y1="490.0" x2="705.8" y2="496.0" stroke="black"/><text x="705.8" y="510.0" text-anchor="middle">95.4 MiB</text><line x1="705.8" y1="490.0" x2="705.8" y2="60.0" stroke="#dddddd"/><line x1="831.0" y1="490.0" x2="831.0" y2="496.0" stroke="black"/><text x="831.0" y="510.0" text-anchor="middle">114.4 MiB</text><line x1="831.0" y1="490.0" x2="831.0" y2="60.0" stroke="#dddddd"/><line x1="956.2" y1="490.0" x2="956.2" y2="496.0" stroke="black"/><text x="956.2" y="510.0" text-anchor="middle">133.5 MiB</text><line x1="956.2" y1="490.0" x2="956.2" y2="60.0" stroke="#dddddd"/><line x1="74.0" y1="490.0" x2="80.0" y2="490.0" stroke="black"/><text x="72.0" y="494.0" text-anchor="end">0.00</text><line x1="80.0" y1="490.0" x2="920.0" y2="490.0" stroke="#ededed"/><line x1="74.0" y1="417.3" x2="80.0" y2="417.3" stroke="black"/><text x="72.0" y="421.3" text-anchor="end">200</text><line x1="80.0" y1="417.3" x2="920.0" y2="417.3" stroke="#ededed"/><line x1="74.0" y1="344.6" x2="80.0" y2="344.6" stroke="black"/><text x="72.0" y="348.6" text-anchor="end">400</text><line x1="80.0" y1="344.6" x2="920.0" y2="344.6" stroke="#ededed"/><line x1="74.0" y1="271.9" x2="80.0" y2="271.9" stroke="black"/><text x="72.0" y="275.9" text-anchor="end">600</text><line x1="80.0" y1="271.9" x2="920.0" y2="271.9" stroke="#ededed"/><line x1="74.0" y1="199.3" x2="80.0" y2="199.3" stroke="black"/><text x="72.0" y="203.3" text-anchor="end">800</text><line x1="80.0" y1="199.3" x2="920.0" y2="199.3" stroke="#ededed"/><line x1="74.0" y1="126.6" x2="80.0" y2="126.6" stroke="black"/><text x="72.0" y="130.6" text-anchor="end">1.0k</text><line x1="80.0" y1="126.6" x2="920.0" y2="126.6" stroke="#ededed"/><line x1="74.0" y1="53.9" x2="80.0" y2="53.9" stroke="black"/><text x="72.0" y="57.9" text-anchor="end">1.2k</text><line x1="80.0" y1="53.9" x2="920.0" y2="53.9" stroke="#ededed"/><polyline fill="none" stroke="#d62728" stroke-width="2" points="80.0,490.0 80.0,490.0 80.0,472.0 80.0,436.8 80.1,393.3 80.4,117.3 81.6,162.3 83.3,184.6 86.6,60.0 93.1,95.8 106.2,191.3 185.0,185.1 290.0,109.1 500.0,167.7 920.0,292.7 "/><circle cx="80.0" cy="490.0" r="3" fill="#d62728"/><circle cx="80.0" cy="490.0" r="3" fill="#d62728"/><circle cx="80.0" cy="472.0" r="3" fill="#d62728"/><circle cx="80.0" cy="436.8" r="3" fill="#d62728"/><circle cx="80.1" cy="393.3" r="3" fill="#d62728"/><circle cx="80.4" cy="117.3" r="3" fill="#d62728"/><circle cx="81.6" cy="162.3" r="3" fill="#d62728"/><circle cx="83.3" cy="184.6" r="3" fill="#d62728"/><circle cx="86.6" cy="60.0" r="3" fill="#d62728"/><circle cx="93.1" cy="95.8" r="3" fill="#d62728"/><circle cx="106.2" cy="191.3" r="3" fill="#d62728"/><circle cx="185.0" cy="185.1" r="3" fill="#d62728"/><circle cx="290.0" cy="109.1" r="3" fill="#d62728"/><circle cx="500.0" cy="167.7" r="3" fill="#d62728"/><circle cx="920.0" cy="292.7" r="3" fill="#d62728"/><polyline fill="none" stroke="#1f77b4" stroke-width="2" points="80.0,490.0 80.0,490.0 80.0,482.3 80.0,457.8 80.1,436.2 80.4,342.4 81.6,440.4 83.3,418.2 86.6,391.2 93.1,388.1 106.2,404.4 185.0,371.2 290.0,370.2 500.0,373.0 920.0,351.7 "/><circle cx="80.0" cy="490.0" r="3" fill="#1f77b4"/><circle cx="80.0" cy="490.0" r="3" fill="#1f77b4"/><circle cx="80.0" cy="482.3" r="3" fill="#1f77b4"/><circle cx="80.0" cy="457.8" r="3" fill="#1f77b4"/><circle cx="80.1" cy="436.2" r="3" fill="#1f77b4"/><circle cx="80.4" cy="342.4" r="3" fill="#1f77b4"/><circle cx="81.6" cy="440.4" r="3" fill="#1f77b4"/><circle cx="83.3" cy="418.2" r="3" fill="#1f77b4"/><circle cx="86.6" cy="391.2" r="3" fill="#1f77b4"/><circle cx="93.1" cy="388.1" r="3" fill="#1f77b4"/><circle cx="106.2" cy="404.4" r="3" fill="#1f77b4"/><circle cx="185.0" cy="371.2" r="3" fill="#1f77b4"/><circle cx="290.0" cy="370.2" r="3" fill="#1f77b4"/><circle cx="500.0" cy="373.0" r="3" fill="#1f77b4"/><circle cx="920.0" cy="351.7" r="3" fill="#1f77b4"/><rect x="770.0" y="70.0" width="140" height="54.0" fill="white" stroke="#ccc"/><line x1="780.0" y1="85.0" x2="800.0" y2="85.0" stroke="#d62728" stroke-width="3"/><text x="810.0" y="88.0">shm</text><line x1="780.0" y1="107.0" x2="800.0" y2="107.0" stroke="#1f77b4" stroke-width="3"/><text x="810.0" y="110.0">tcp</text></svg>