<svg xmlns="http://www.w3.org/2000/svg" width="960" height="560" viewBox="0 0 960 560"><style>text{font-family:Arial,sans-serif;font-size:12px;} .title{font-size:16px;font-weight:bold;}</style><rect width="100%" height="100%" fill="white"/><text x="480.0" y="30.0" class="title" text-anchor="middle">Unary ping-pong latency</text><text x="480.0" y="540.0" text-anchor="middle">Payload size</text><text x="15" y="280.0" transform="rotate(-90 15,280.0)" text-anchor="middle">Avg latency (µs)</text><line x1="80.0" y1="490.0" x2="920.0" y2="490.0" stroke="black"/><line x1="80.0" y1="490.0" x2="80.0" y2="60.0" stroke="black"/><line x1="80.0" y1="490.0" x2="80.0" y2="496.0" stroke="black"/><text x="80.0" y="510.0" text-anchor="middle">0 B</text><line x1="80.0" y1="490.0" x2="80.0" y2="60.0" stroke="#dddddd"/><line x1="205.2" y1="490.0" x2="205.2" y2="496.0" stroke="black"/><text x="205.2" y="510.0" text-anchor="middle">19.1 MiB</text><line x1="205.2" y1="490.0" x2="205.2" y2="60.0" stroke="#dddddd"/><line x1="330.3" y1="490.0" x2="330.3" y2="496.0" stroke="black"/><text x="330.3" y="510.0" text-anchor="middle">38.1 MiB</text><line x1="330.3" y1="490.0" x2="330.3" y2="60.0" stroke="#dddddd"/><line x1="455.5" y1="490.0" x2="455.5" y2="496.0" stroke="black"/><text x="455.5" y="510.0" text-anchor="middle">57.2 MiB</text><line x1="455.5" y1="490.0" x2="455.5" y2="60.0" stroke="#dddddd"/><line x1="580.7" y1="490.0" x2="580.7" y2="496.0" stroke="black"/><text x="580.7" y="510.0" text-anchor="middle">76.3 MiB</text><line x1="580.7" y1="490.0" x2="580.7" y2="60.0" stroke="#dddddd"/><line x1="705.8" y1="490.0" x2="705.8" y2="496.0" stroke="black"/><text x="705.8" y="510.0" text-anchor="middle">95.4 MiB</text><line x1="705.8" y1="490.0" x2="705.8" y2="60.0" stroke="#dddddd"/><line x1="831.0" y1="490.0" x2="831.0" y2="496.0" stroke="black"/><text x="831.0" y="510.0" text-anchor="middle">114.4 MiB</text><line x1="831.0" y1="490.0" x2="831.0" y2="60.0" stroke="#dddddd"/><line x1="956.2" y1="490.0" x2="956.2" y2="496.0" stroke="black"/><text x="956.2" y="510.0" text-anchor="middle">133.5 MiB</text><line x1="956.2" y1="490.0" x2="956.2" y2="60.0" stroke="#dddddd"/><line x1="74.0" y1="490.0" x2="80.0" y2="490.0" stroke="black"/><text x="72.0" y="494.0" text-anchor="end">0.00</text><line x1="80.0" y1="490.0" x2="920.0" y2="490.0" stroke="#ededed"/><line x1="74.0" y1="430.4" x2="80.0" y2="430.4" stroke="black"/><text x="72.0" y="434.4" text-anchor="end">100.0k</text><line x1="80.0" y1="430.4" x2="920.0" y2="430.4" stroke="#ededed"/><line x1="74.0" y1="370.8" x2="80.0" y2="370.8" stroke="black"/><text x="72.0" y="374.8" text-anchor="end">200.0k</text><line x1="80.0" y1="370.8" x2="920.0" y2="370.8" stroke="#ededed"/><line x1="74.0" y1="311.1" x2="80.0" y2="311.1" stroke="black"/><text x="72.0" y="315.1" text-anchor="end">300.0k</text><line x1="80.0" y1="311.1" x2="920.0" y2="311.1" stroke="#ededed"/><line x1="74.0" y1="251.5" x2="80.0" y2="251.5" stroke="black"/><text x="72.0" y="255.5" text-anchor="end">400.0k</text><line x1="80.0" y1="251.5" x2="920.0" y2="251.5" stroke="#ededed"/><line x1="74.0" y1="191.9" x2="80.0" y2="191.9" stroke="black"/><text x="72.0" y="195.9" text-anchor="end">500.0k</text><line x1="80.0" y1="191.9" x2="920.0" y2="191.9" stroke="#ededed"/><line x1="74.0" y1="132.3" x2="80.0" y2="132.3" stroke="black"/><text x="72.0" y="136.3" text-anchor="end">600.0k</text><line x1="80.0" y1="132.3" x2="920.0" y2="132.3" stroke="#ededed"/><line x1="74.0" y1="72.6" x2="80.0" y2="72.6" stroke="black"/><text x="72.0" y="76.6" text-anchor="end">700.0k</text><line x1="80.0" y1="72.6" x2="920.0" y2="72.6" stroke="#ededed"/><line x1="74.0" y1="13.0" x2="80.0" y2="13.0" stroke="black"/><text x="72.0" y="17.0" text-anchor="end">800.0k</text><line x1="80.0" y1="13.0" x2="920.0" y2="13.0" stroke="#ededed"/><polyline fill="none" stroke="#d62728" stroke-width="2" points="80.0,490.0 80.0,490.0 80.0,489.9 80.0,490.0 80.1,489.9 80.4,489.4 81.6,489.3 83.3,488.3 86.6,487.8 93.1,486.2 106.2,483.1 185.0,469.4 290.0,446.7 500.0,393.8 920.0,266.8 "/><circle cx="80.0" cy="490.0" r="3" fill="#d62728"/><circle cx="80.0" cy="490.0" r="3" fill="#d62728"/><circle cx="80.0" cy="489.9" r="3" fill="#d62728"/><circle cx="80.0" cy="490.0" r="3" fill="#d62728"/><circle cx="80.1" cy="489.9" r="3" fill="#d62728"/><circle cx="80.4" cy="489.4" r="3" fill="#d62728"/><circle cx="81.6" cy="489.3" r="3" fill="#d62728"/><circle cx="83.3" cy="488.3" r="3" fill="#d62728"/><circle cx="86.6" cy="487.8" r="3" fill="#d62728"/><circle cx="93.1" cy="486.2" r="3" fill="#d62728"/><circle cx="106.2" cy="483.1" r="3" fill="#d62728"/><circle cx="185.0" cy="469.4" r="3" fill="#d62728"/><circle cx="290.0" cy="446.7" r="3" fill="#d62728"/><circle cx="500.0" cy="393.8" r="3" fill="#d62728"/><circle cx="920.0" cy="266.8" r="3" fill="#d62728"/><polyline fill="none" stroke="#1f77b4" stroke-width="2" points="80.0,489.9 80.0,489.9 80.0,489.9 80.0,489.9 80.1,489.9 80.4,489.7 81.6,488.7 83.3,487.1 86.6,484.3 93.1,482.4 106.2,475.7 185.0,437.8 290.0,373.4 500.0,237.8 920.0,60.0 "/><circle cx="80.0" cy="489.9" r="3" fill="#1f77b4"/><circle cx="80.0" cy="489.9" r="3" fill="#1f77b4"/><circle cx="80.0" cy="489.9" r="3" fill="#1f77b4"/><circle cx="80.0" cy="489.9" r="3" fill="#1f77b4"/><circle cx="80.1" cy="489.9" r="3" fill="#1f77b4"/><circle cx="80.4" cy="489.7" r="3" fill="#1f77b4"/><circle cx="81.6" cy="488.7" r="3" fill="#1f77b4"/><circle cx="83.3" cy="487.1" r="3" fill="#1f77b4"/><circle cx="86.6" cy="484.3" r="3" fill="#1f77b4"/><circle cx="93.1" cy="482.4" r="3" fill="#1f77b4"/><circle cx="106.2" cy="475.7" r="3" fill="#1f77b4"/><circle cx="185.0" cy="437.8" r="3" fill="#1f77b4"/><circle cx="290.0" cy="373.4" r="3" fill="#1f77b4"/><circle cx="500.0" cy="237.8" r="3" fill="#1f77b4"/><circle cx="920.0" cy="60.0" r="3" fill="#1f77b4"/><rect x="770.0" y="70.0" width="140" height="54.0" fill="white" stroke="#ccc"/><line x1="780.0" y1="85.0" x2="800.0" y2="85.0" stroke="#d62728" stroke-width="3"/><text x="810.0" y="88.0">shm</text><line x1="780.0" y1="107.0" x2="800.0" y2="107.0" stroke="#1f77b4" stroke-width="3"/><text x="810.0" y="110.0">tcp</text></svg>