<svg xmlns="http://www.w3.org/2000/svg" width="960" height="560" viewBox="0 0 960 560"><style>text{font-family:Arial,sans-serif;font-size:12px;} .title{font-size:16px;font-weight:bold;}</style><rect width="100%" height="100%" fill="white"/><text x="480.0" y="30.0" class="title" text-anchor="middle">Streaming throughput</text><text x="480.0" y="540.0" text-anchor="middle">Payload size</text><text x="15" y="280.0" transform="rotate(-90 15,280.0)" text-anchor="middle">Throughput (MiB/s)</text><line x1="80.0" y1="490.0" x2="920.0" y2="490.0" stroke="black"/><line x1="80.0" y1="490.0" x2="80.0" y2="60.0" stroke="black"/><line x1="80.0" y1="490.0" x2="80.0" y2="496.0" stroke="black"/><text x="80.0" y="510.0" text-anchor="middle">0 B</text><line x1="80.0" y1="490.0" x2="80.0" y2="60.0" stroke="#dddddd"/><line x1="280.3" y1="490.0" x2="280.3" y2="496.0" stroke="black"/><text x="280.3" y="510.0" text-anchor="middle">488.3 KiB</text><line x1="280.3" y1="490.0" x2="280.3" y2="60.0" stroke="#dddddd"/><line x1="480.5" y1="490.0" x2="480.5" y2="496.0" stroke="black"/><text x="480.5" y="510.0" text-anchor="middle">976.6 KiB</text><line x1="480.5" y1="490.0" x2="480.5" y2="60.0" stroke="#dddddd"/><line x1="680.8" y1="490.0" x2="680.8" y2="496.0" stroke="black"/><text x="680.8" y="510.0" text-anchor="middle">1.4 MiB</text><line x1="680.8" y1="490.0" x2="680.8" y2="60.0" stroke="#dddddd"/><line x1="881.1" y1="490.0" x2="881.1" y2="496.0" stroke="black"/><text x="881.1" y="510.0" text-anchor="middle">1.9 MiB</text><line x1="881.1" y1="490.0" x2="881.1" y2="60.0" stroke="#dddddd"/><line x1="1081.4" y1="490.0" x2="1081.4" y2="496.0" stroke="black"/><text x="1081.4" y="510.0" text-anchor="middle">2.4 MiB</text><line x1="1081.4" y1="490.0" x2="1081.4" y2="60.0" stroke="#dddddd"/><line x1="74.0" y1="490.0" x2="80.0" y2="490.0" stroke="black"/><text x="72.0" y="494.0" text-anchor="end">0.00</text><line x1="80.0" y1="490.0" x2="920.0" y2="490.0" stroke="#ededed"/><line x1="74.0" y1="431.7" x2="80.0" y2="431.7" stroke="black"/><text x="72.0" y="435.7" text-anchor="end">200</text><line x1="80.0" y1="431.7" x2="920.0" y2="431.7" stroke="#ededed"/><line x1="74.0" y1="373.5" x2="80.0" y2="373.5" stroke="black"/><text x="72.0" y="377.5" text-anchor="end">400</text><line x1="80.0" y1="373.5" x2="920.0" y2="373.5" stroke="#ededed"/><line x1="74.0" y1="315.2" x2="80.0" y2="315.2" stroke="black"/><text x="72.0" y="319.2" text-anchor="end">600</text><line x1="80.0" y1="315.2" x2="920.0" y2="315.2" stroke="#ededed"/><line x1="74.0" y1="257.0" x2="80.0" y2="257.0" stroke="black"/><text x="72.0" y="261.0" text-anchor="end">800</text><line x1="80.0" y1="257.0" x2="920.0" y2="257.0" stroke="#ededed"/><line x1="74.0" y1="198.7" x2="80.0" y2="198.7" stroke="black"/><text x="72.0" y="202.7" text-anchor="end">1.0k</text><line x1="80.0" y1="198.7" x2="920.0" y2="198.7" stroke="#ededed"/><line x1="74.0" y1="140.5" x2="80.0" y2="140.5" stroke="black"/><text x="72.0" y="144.5" text-anchor="end">1.2k</text><line x1="80.0" y1="140.5" x2="920.0" y2="140.5" stroke="#ededed"/><line x1="74.0" y1="82.2" x2="80.0" y2="82.2" stroke="black"/><text x="72.0" y="86.2" text-anchor="end">1.4k</text><line x1="80.0" y1="82.2" x2="920.0" y2="82.2" stroke="#ededed"/><line x1="74.0" y1="24.0" x2="80.0" y2="24.0" stroke="black"/><text x="72.0" y="28.0" text-anchor="end">1.6k</text><line x1="80.0" y1="24.0" x2="920.0" y2="24.0" stroke="#ededed"/><polyline fill="none" stroke="#d62728" stroke-width="2" points="80.0,490.0 80.0,490.0 80.4,460.0 81.6,368.7 86.6,246.1 106.2,60.0 185.0,402.0 290.0,398.6 500.0,382.9 920.0,357.6 "/><circle cx="80.0" cy="490.0" r="3" fill="#d62728"/><circle cx="80.0" cy="490.0" r="3" fill="#d62728"/><circle cx="80.4" cy="460.0" r="3" fill="#d62728"/><circle cx="81.6" cy="368.7" r="3" fill="#d62728"/><circle cx="86.6" cy="246.1" r="3" fill="#d62728"/><circle cx="106.2" cy="60.0" r="3" fill="#d62728"/><circle cx="185.0" cy="402.0" r="3" fill="#d62728"/><circle cx="290.0" cy="398.6" r="3" fill="#d62728"/><circle cx="500.0" cy="382.9" r="3" fill="#d62728"/><circle cx="920.0" cy="357.6" r="3" fill="#d62728"/><polyline fill="none" stroke="#1f77b4" stroke-width="2" points="80.0,490.0 80.0,490.0 80.4,478.5 81.6,451.9 86.6,392.6 106.2,310.1 185.0,425.8 290.0,427.9 500.0,395.4 920.0,396.6 "/><circle cx="80.0" cy="490.0" r="3" fill="#1f77b4"/><circle cx="80.0" cy="490.0" r="3" fill="#1f77b4"/><circle cx="80.4" cy="478.5" r="3" fill="#1f77b4"/><circle cx="81.6" cy="451.9" r="3" fill="#1f77b4"/><circle cx="86.6" cy="392.6" r="3" fill="#1f77b4"/><circle cx="106.2" cy="310.1" r="3" fill="#1f77b4"/><circle cx="185.0" cy="425.8" r="3" fill="#1f77b4"/><circle cx="290.0" cy="427.9" r="3" fill="#1f77b4"/><circle cx="500.0" cy="395.4" r="3" fill="#1f77b4"/><circle cx="920.0" cy="396.6" r="3" fill="#1f77b4"/><rect x="770.0" y="70.0" width="140" height="54.0" fill="white" stroke="#ccc"/><line x1="780.0" y1="85.0" x2="800.0" y2="85.0" stroke="#d62728" stroke-width="3"/><text x="810.0" y="88.0">shm</text><line x1="780.0" y1="107.0" x2="800.0" y2="107.0" stroke="#1f77b4" stroke-width="3"/><text x="810.0" y="110.0">tcp</text></svg>