<svg xmlns="http://www.w3.org/2000/svg" width="960" height="560" viewBox="0 0 960 560"><style>text{font-family:Arial,sans-serif;font-size:12px;} .title{font-size:16px;font-weight:bold;}</style><rect width="100%" height="100%" fill="white"/><text x="480.0" y="30.0" class="title" text-anchor="middle">Streaming ping-pong latency</text><text x="480.0" y="540.0" text-anchor="middle">Payload size</text><text x="15" y="280.0" transform="rotate(-90 15,280.0)" text-anchor="middle">Avg latency (µs)</text><line x1="80.0" y1="490.0" x2="920.0" y2="490.0" stroke="black"/><line x1="80.0" y1="490.0" x2="80.0" y2="60.0" stroke="black"/><line x1="80.0" y1="490.0" x2="80.0" y2="496.0" stroke="black"/><text x="80.0" y="510.0" text-anchor="middle">0 B</text><line x1="80.0" y1="490.0" x2="80.0" y2="60.0" stroke="#dddddd"/><line x1="280.3" y1="490.0" x2="280.3" y2="496.0" stroke="black"/><text x="280.3" y="510.0" text-anchor="middle">488.3 KiB</text><line x1="280.3" y1="490.0" x2="280.3" y2="60.0" stroke="#dddddd"/><line x1="480.5" y1="490.0" x2="480.5" y2="496.0" stroke="black"/><text x="480.5" y="510.0" text-anchor="middle">976.6 KiB</text><line x1="480.5" y1="490.0" x2="480.5" y2="60.0" stroke="#dddddd"/><line x1="680.8" y1="490.0" x2="680.8" y2="496.0" stroke="black"/><text x="680.8" y="510.0" text-anchor="middle">1.4 MiB</text><line x1="680.8" y1="490.0" x2="680.8" y2="60.0" stroke="#dddddd"/><line x1="881.1" y1="490.0" x2="881.1" y2="496.0" stroke="black"/><text x="881.1" y="510.0" text-anchor="middle">1.9 MiB</text><line x1="881.1" y1="490.0" x2="881.1" y2="60.0" stroke="#dddddd"/><line x1="1081.4" y1="490.0" x2="1081.4" y2="496.0" stroke="black"/><text x="1081.4" y="510.0" text-anchor="middle">2.4 MiB</text><line x1="1081.4" y1="490.0" x2="1081.4" y2="60.0" stroke="#dddddd"/><line x1="74.0" y1="490.0" x2="80.0" y2="490.0" stroke="black"/><text x="72.0" y="494.0" text-anchor="end">0.00</text><line x1="80.0" y1="490.0" x2="920.0" y2="490.0" stroke="#ededed"/><line x1="74.0" y1="421.0" x2="80.0" y2="421.0" stroke="black"/><text x="72.0" y="425.0" text-anchor="end">2.0k</text><line x1="80.0" y1="421.0" x2="920.0" y2="421.0" stroke="#ededed"/><line x1="74.0" y1="352.1" x2="80.0" y2="352.1" stroke="black"/><text x="72.0" y="356.1" text-anchor="end">4.0k</text><line x1="80.0" y1="352.1" x2="920.0" y2="352.1" stroke="#ededed"/><line x1="74.0" y1="283.1" x2="80.0" y2="283.1" stroke="black"/><text x="72.0" y="287.1" text-anchor="end">6.0k</text><line x1="80.0" y1="283.1" x2="920.0" y2="283.1" stroke="#ededed"/><line x1="74.0" y1="214.2" x2="80.0" y2="214.2" stroke="black"/><text x="72.0" y="218.2" text-anchor="end">8.0k</text><line x1="80.0" y1="214.2" x2="920.0" y2="214.2" stroke="#ededed"/><line x1="74.0" y1="145.2" x2="80.0" y2="145.2" stroke="black"/><text x="72.0" y="149.2" text-anchor="end">10.0k</text><line x1="80.0" y1="145.2" x2="920.0" y2="145.2" stroke="#ededed"/><line x1="74.0" y1="76.3" x2="80.0" y2="76.3" stroke="black"/><text x="72.0" y="80.3" text-anchor="end">12.0k</text><line x1="80.0" y1="76.3" x2="920.0" y2="76.3" stroke="#ededed"/><line x1="74.0" y1="7.3" x2="80.0" y2="7.3" stroke="black"/><text x="72.0" y="11.3" text-anchor="end">14.0k</text><line x1="80.0" y1="7.3" x2="920.0" y2="7.3" stroke="#ededed"/><polyline fill="none" stroke="#d62728" stroke-width="2" points="80.0,489.5 80.0,489.5 80.4,489.3 81.6,489.4 86.6,488.7 106.2,487.1 185.0,433.0 290.0,380.2 500.0,302.6 920.0,186.6 "/><circle cx="80.0" cy="489.5" r="3" fill="#d62728"/><circle cx="80.0" cy="489.5" r="3" fill="#d62728"/><circle cx="80.4" cy="489.3" r="3" fill="#d62728"/><circle cx="81.6" cy="489.4" r="3" fill="#d62728"/><circle cx="86.6" cy="488.7" r="3" fill="#d62728"/><circle cx="106.2" cy="487.1" r="3" fill="#d62728"/><circle cx="185.0" cy="433.0" r="3" fill="#d62728"/><circle cx="290.0" cy="380.2" r="3" fill="#d62728"/><circle cx="500.0" cy="302.6" r="3" fill="#d62728"/><circle cx="920.0" cy="186.6" r="3" fill="#d62728"/><polyline fill="none" stroke="#1f77b4" stroke-width="2" points="80.0,488.4 80.0,488.3 80.4,488.3 81.6,487.9 86.6,486.8 106.2,483.0 185.0,411.7 290.0,328.3 500.0,277.6 920.0,60.0 "/><circle cx="80.0" cy="488.4" r="3" fill="#1f77b4"/><circle cx="80.0" cy="488.3" r="3" fill="#1f77b4"/><circle cx="80.4" cy="488.3" r="3" fill="#1f77b4"/><circle cx="81.6" cy="487.9" r="3" fill="#1f77b4"/><circle cx="86.6" cy="486.8" r="3" fill="#1f77b4"/><circle cx="106.2" cy="483.0" r="3" fill="#1f77b4"/><circle cx="185.0" cy="411.7" r="3" fill="#1f77b4"/><circle cx="290.0" cy="328.3" r="3" fill="#1f77b4"/><circle cx="500.0" cy="277.6" r="3" fill="#1f77b4"/><circle cx="920.0" cy="60.0" r="3" fill="#1f77b4"/><rect x="770.0" y="70.0" width="140" height="54.0" fill="white" stroke="#ccc"/><line x1="780.0" y1="85.0" x2="800.0" y2="85.0" stroke="#d62728" stroke-width="3"/><text x="810.0" y="88.0">shm</text><line x1="780.0" y1="107.0" x2="800.0" y2="107.0" stroke="#1f77b4" stroke-width="3"/><text x="810.0" y="110.0">tcp</text></svg>