<svg xmlns="http://www.w3.org/2000/svg" width="960" height="560" viewBox="0 0 960 560"><style>text{font-family:Arial,sans-serif;font-size:12px;} .title{font-size:16px;font-weight:bold;}</style><rect width="100%" height="100%" fill="white"/><text x="480.0" y="30.0" class="title" text-anchor="middle">Streaming throughput</text><text x="480.0" y="540.0" text-anchor="middle">Payload size</text><text x="15" y="280.0" transform="rotate(-90 15,280.0)" text-anchor="middle">Throughput (MiB/s)</text><line x1="80.0" y1="490.0" x2="920.0" y2="490.0" stroke="black"/><line x1="80.0" y1="490.0" x2="80.0" y2="60.0" stroke="black"/><line x1="80.0" y1="490.0" x2="80.0" y2="496.0" stroke="black"/><text x="80.0" y="510.0" text-anchor="middle">0 B</text><line x1="80.0" y1="490.0" x2="80.0" y2="60.0" stroke="#dddddd"/><line x1="280.3" y1="490.0" x2="280.3" y2="496.0" stroke="black"/><text x="280.3" y="510.0" text-anchor="middle">488.3 KiB</text><line x1="280.3" y1="490.0" x2="280.3" y2="60.0" stroke="#dddddd"/><line x1="480.5" y1="490.0" x2="480.5" y2="496.0" stroke="black"/><text x="480.5" y="510.0" text-anchor="middle">976.6 KiB</text><line x1="480.5" y1="490.0" x2="480.5" y2="60.0" stroke="#dddddd"/><line x1="680.8" y1="490.0" x2="680.8" y2="496.0" stroke="black"/><text x="680.8" y="510.0" text-anchor="middle">1.4 MiB</text><line x1="680.8" y1="490.0" x2="680.8" y2="60.0" stroke="#dddddd"/><line x1="881.1" y1="490.0" x2="881.1" y2="496.0" stroke="black"/><text x="881.1" y="510.0" text-anchor="middle">1.9 MiB</text><line x1="881.1" y1="490.0" x2="881.1" y2="60.0" stroke="#dddddd"/><line x1="1081.4" y1="490.0" x2="1081.4" y2="496.0" stroke="black"/><text x="1081.4" y="510.0" text-anchor="middle">2.4 MiB</text><line x1="1081.4" y1="490.0" x2="1081.4" y2="60.0" stroke="#dddddd"/><line x1="74.0" y1="490.0" x2="80.0" y2="490.0" stroke="black"/><text x="72.0" y="494.0" text-anchor="end">0.00</text><line x1="80.0" y1="490.0" x2="920.0" y2="490.0" stroke="#ededed"/><line x1="74.0" y1="417.5" x2="80.0" y2="417.5" stroke="black"/><text x="72.0" y="421.5" text-anchor="end">100</text><line x1="80.0" y1="417.5" x2="920.0" y2="417.5" stroke="#ededed"/><line x1="74.0" y1="345.0" x2="80.0" y2="345.0" stroke="black"/><text x="72.0" y="349.0" text-anchor="end">200</text><line x1="80.0" y1="345.0" x2="920.0" y2="345.0" stroke="#ededed"/><line x1="74.0" y1="272.4" x2="80.0" y2="272.4" stroke="black"/><text x="72.0" y="276.4" text-anchor="end">300</text><line x1="80.0" y1="272.4" x2="920.0" y2="272.4" stroke="#ededed"/><line x1="74.0" y1="199.9" x2="80.0" y2="199.9" stroke="black"/><text x="72.0" y="203.9" text-anchor="end">400</text><line x1="80.0" y1="199.9" x2="920.0" y2="199.9" stroke="#ededed"/><line x1="74.0" y1="127.4" x2="80.0" y2="127.4" stroke="black"/><text x="72.0" y="131.4" text-anchor="end">500</text><line x1="80.0" y1="127.4" x2="920.0" y2="127.4" stroke="#ededed"/><line x1="74.0" y1="54.9" x2="80.0" y2="54.9" stroke="black"/><text x="72.0" y="58.9" text-anchor="end">600</text><line x1="80.0" y1="54.9" x2="920.0" y2="54.9" stroke="#ededed"/><polyline fill="none" stroke="#d62728" stroke-width="2" points="80.0,490.0 80.0,489.9 80.4,450.5 81.6,368.9 86.6,60.0 106.2,111.5 185.0,319.7 290.0,286.2 500.0,243.5 920.0,284.5 "/><circle cx="80.0" cy="490.0" r="3" fill="#d62728"/><circle cx="80.0" cy="489.9" r="3" fill="#d62728"/><circle cx="80.4" cy="450.5" r="3" fill="#d62728"/><circle cx="81.6" cy="368.9" r="3" fill="#d62728"/><circle cx="86.6" cy="60.0" r="3" fill="#d62728"/><circle cx="106.2" cy="111.5" r="3" fill="#d62728"/><circle cx="185.0" cy="319.7" r="3" fill="#d62728"/><circle cx="290.0" cy="286.2" r="3" fill="#d62728"/><circle cx="500.0" cy="243.5" r="3" fill="#d62728"/><circle cx="920.0" cy="284.5" r="3" fill="#d62728"/><polyline fill="none" stroke="#1f77b4" stroke-width="2" points="80.0,490.0 80.0,490.0 80.4,463.4 81.6,403.9 86.6,262.7 106.2,109.4 185.0,366.5 290.0,289.5 500.0,286.2 920.0,274.2 "/><circle cx="80.0" cy="490.0" r="3" fill="#1f77b4"/><circle cx="80.0" cy="490.0" r="3" fill="#1f77b4"/><circle cx="80.4" cy="463.4" r="3" fill="#1f77b4"/><circle cx="81.6" cy="403.9" r="3" fill="#1f77b4"/><circle cx="86.6" cy="262.7" r="3" fill="#1f77b4"/><circle cx="106.2" cy="109.4" r="3" fill="#1f77b4"/><circle cx="185.0" cy="366.5" r="3" fill="#1f77b4"/><circle cx="290.0" cy="289.5" r="3" fill="#1f77b4"/><circle cx="500.0" cy="286.2" r="3" fill="#1f77b4"/><circle cx="920.0" cy="274.2" r="3" fill="#1f77b4"/><rect x="770.0" y="70.0" width="140" height="54.0" fill="white" stroke="#ccc"/><line x1="780.0" y1="85.0" x2="800.0" y2="85.0" stroke="#d62728" stroke-width="3"/><text x="810.0" y="88.0">shm</text><line x1="780.0" y1="107.0" x2="800.0" y2="107.0" stroke="#1f77b4" stroke-width="3"/><text x="810.0" y="110.0">tcp</text></svg>