<svg xmlns="http://www.w3.org/2000/svg" width="960" height="560" viewBox="0 0 960 560"><style>text{font-family:Arial,sans-serif;font-size:12px;} .title{font-size:16px;font-weight:bold;}</style><rect width="100%" height="100%" fill="white"/><text x="480.0" y="30.0" class="title" text-anchor="middle">Streaming throughput</text><text x="480.0" y="540.0" text-anchor="middle">Payload size</text><text x="15" y="280.0" transform="rotate(-90 15,280.0)" text-anchor="middle">Throughput (MiB/s)</text><line x1="80.0" y1="490.0" x2="920.0" y2="490.0" stroke="black"/><line x1="80.0" y1="490.0" x2="80.0" y2="60.0" stroke="black"/><line x1="80.0" y1="490.0" x2="80.0" y2="496.0" stroke="black"/><text x="80.0" y="510.0" text-anchor="middle">0 B</text><line x1="80.0" y1="490.0" x2="80.0" y2="60.0" stroke="#dddddd"/><line x1="205.2" y1="490.0" x2="205.2" y2="496.0" stroke="black"/><text x="205.2" y="510.0" text-anchor="middle">19.1 MiB</text><line x1="205.2" y1="490.0" x2="205.2" y2="60.0" stroke="#dddddd"/><line x1="330.3" y1="490.0" x2="330.3" y2="496.0" stroke="black"/><text x="330.3" y="510.0" text-anchor="middle">38.1 MiB</text><line x1="330.3" y1="490.0" x2="330.3" y2="60.0" stroke="#dddddd"/><line x1="455.5" y1="490.0" x2="455.5" y2="496.0" stroke="black"/><text x="455.5" y="510.0" text-anchor="middle">57.2 MiB</text><line x1="455.5" y1="490.0" x2="455.5" y2="60.0" stroke="#dddddd"/><line x1="580.7" y1="490.0" x2="580.7" y2="496.0" stroke="black"/><text x="580.7" y="510.0" text-anchor="middle">76.3 MiB</text><line x1="580.7" y1="490.0" x2="580.7" y2="60.0" stroke="#dddddd"/><line x1="705.8" y1="490.0" x2="705.8" y2="496.0" stroke="black"/><text x="705.8" y="510.0" text-anchor="middle">95.4 MiB</text><line x1="705.8" y1="490.0" x2="705.8" y2="60.0" stroke="#dddddd"/><line x1="831.0" y1="490.0" x2="831.0" y2="496.0" stroke="black"/><text x="831.0" y="510.0" text-anchor="middle">114.4 MiB</text><line x1="831.0" y1="490.0" x2="831.0" y2="60.0" stroke="#dddddd"/><line x1="956.2" y1="490.0" x2="956.2" y2="496.0" stroke="black"/><text x="956.2" y="510.0" text-anchor="middle">133.5 MiB</text><line x1="956.2" y1="490.0" x2="956.2" y2="60.0" stroke="#dddddd"/><line x1="74.0" y1="490.0" x2="80.0" y2="490.0" stroke="black"/><text x="72.0" y="494.0" text-anchor="end">0.00</text><line x1="80.0" y1="490.0" x2="920.0" y2="490.0" stroke="#ededed"/><line x1="74.0" y1="434.7" x2="80.0" y2="434.7" stroke="black"/><text x="72.0" y="438.7" text-anchor="end">500</text><line x1="80.0" y1="434.7" x2="920.0" y2="434.7" stroke="#ededed"/><line x1="74.0" y1="379.5" x2="80.0" y2="379.5" stroke="black"/><text x="72.0" y="383.5" text-anchor="end">1.0k</text><line x1="80.0" y1="379.5" x2="920.0" y2="379.5" stroke="#ededed"/><line x1="74.0" y1="324.2" x2="80.0" y2="324.2" stroke="black"/><text x="72.0" y="328.2" text-anchor="end">1.5k</text><line x1="80.0" y1="324.2" x2="920.0" y2="324.2" stroke="#ededed"/><line x1="74.0" y1="269.0" x2="80.0" y2="269.0" stroke="black"/><text x="72.0" y="273.0" text-anchor="end">2.0k</text><line x1="80.0" y1="269.0" x2="920.0" y2="269.0" stroke="#ededed"/><line x1="74.0" y1="213.7" x2="80.0" y2="213.7" stroke="black"/><text x="72.0" y="217.7" text-anchor="end">2.5k</text><line x1="80.0" y1="213.7" x2="920.0" y2="213.7" stroke="#ededed"/><line x1="74.0" y1="158.5" x2="80.0" y2="158.5" stroke="black"/><text x="72.0" y="162.5" text-anchor="end">3.0k</text><line x1="80.0" y1="158.5" x2="920.0" y2="158.5" stroke="#ededed"/><line x1="74.0" y1="103.2" x2="80.0" y2="103.2" stroke="black"/><text x="72.0" y="107.2" text-anchor="end">3.5k</text><line x1="80.0" y1="103.2" x2="920.0" y2="103.2" stroke="#ededed"/><line x1="74.0" y1="48.0" x2="80.0" y2="48.0" stroke="black"/><text x="72.0" y="52.0" text-anchor="end">4.0k</text><line x1="80.0" y1="48.0" x2="920.0" y2="48.0" stroke="#ededed"/><polyline fill="none" stroke="#d62728" stroke-width="2" points="80.0,490.0 80.0,490.0 80.0,481.5 80.0,448.1 80.1,344.9 80.4,211.8 81.6,60.0 83.3,102.0 86.6,114.4 93.1,251.9 106.2,162.3 185.0,150.2 290.0,87.7 500.0,155.6 920.0,216.8 "/><circle cx="80.0" cy="490.0" r="3" fill="#d62728"/><circle cx="80.0" cy="490.0" r="3" fill="#d62728"/><circle cx="80.0" cy="481.5" r="3" fill="#d62728"/><circle cx="80.0" cy="448.1" r="3" fill="#d62728"/><circle cx="80.1" cy="344.9" r="3" fill="#d62728"/><circle cx="80.4" cy="211.8" r="3" fill="#d62728"/><circle cx="81.6" cy="60.0" r="3" fill="#d62728"/><circle cx="83.3" cy="102.0" r="3" fill="#d62728"/><circle cx="86.6" cy="114.4" r="3" fill="#d62728"/><circle cx="93.1" cy="251.9" r="3" fill="#d62728"/><circle cx="106.2" cy="162.3" r="3" fill="#d62728"/><circle cx="185.0" cy="150.2" r="3" fill="#d62728"/><circle cx="290.0" cy="87.7" r="3" fill="#d62728"/><circle cx="500.0" cy="155.6" r="3" fill="#d62728"/><circle cx="920.0" cy="216.8" r="3" fill="#d62728"/><polyline fill="none" stroke="#1f77b4" stroke-width="2" points="80.0,490.0 80.0,490.0 80.0,487.1 80.0,480.9 80.1,462.0 80.4,431.8 81.6,467.4 83.3,461.7 86.6,457.7 93.1,458.1 106.2,447.2 185.0,444.3 290.0,442.1 500.0,449.2 920.0,444.0 "/><circle cx="80.0" cy="490.0" r="3" fill="#1f77b4"/><circle cx="80.0" cy="490.0" r="3" fill="#1f77b4"/><circle cx="80.0" cy="487.1" r="3" fill="#1f77b4"/><circle cx="80.0" cy="480.9" r="3" fill="#1f77b4"/><circle cx="80.1" cy="462.0" r="3" fill="#1f77b4"/><circle cx="80.4" cy="431.8" r="3" fill="#1f77b4"/><circle cx="81.6" cy="467.4" r="3" fill="#1f77b4"/><circle cx="83.3" cy="461.7" r="3" fill="#1f77b4"/><circle cx="86.6" cy="457.7" r="3" fill="#1f77b4"/><circle cx="93.1" cy="458.1" r="3" fill="#1f77b4"/><circle cx="106.2" cy="447.2" r="3" fill="#1f77b4"/><circle cx="185.0" cy="444.3" r="3" fill="#1f77b4"/><circle cx="290.0" cy="442.1" r="3" fill="#1f77b4"/><circle cx="500.0" cy="449.2" r="3" fill="#1f77b4"/><circle cx="920.0" cy="444.0" r="3" fill="#1f77b4"/><rect x="770.0" y="70.0" width="140" height="54.0" fill="white" stroke="#ccc"/><line x1="780.0" y1="85.0" x2="800.0" y2="85.0" stroke="#d62728" stroke-width="3"/><text x="810.0" y="88.0">shm</text><line x1="780.0" y1="107.0" x2="800.0" y2="107.0" stroke="#1f77b4" stroke-width="3"/><text x="810.0" y="110.0">tcp</text></svg>